STARTFONT 2.1
COMMENT https://github.com/sunaku/sm4tik-font
FONT -misc-sm4tik-Medium-R-Normal--16-120-100-100-C-100-ISO10646-1
SIZE 1 100 100
FONTBOUNDINGBOX 10 16 0 -4
STARTPROPERTIES 17
POINT_SIZE 120
PIXEL_SIZE 16
RESOLUTION_X 100
RESOLUTION_Y 100
FONT_ASCENT 12
FONT_DESCENT 4
AVERAGE_WIDTH 100
SPACING "C"
_XMBDFED_INFO "Edited with xmbdfed 4.7."
FOUNDRY "misc"
FAMILY_NAME "sm4tik"
WEIGHT_NAME "Medium"
SLANT "R"
SETWIDTH_NAME "Normal"
ADD_STYLE_NAME ""
CHARSET_REGISTRY "ISO10646"
CHARSET_ENCODING "1"
ENDPROPERTIES
CHARS 61
STARTCHAR ac
ENCODING 57344
SWIDTH 7200 0
DWIDTH 10 0
BBX 10 16 0 -4
BITMAP
0000
0000
0000
0000
7F80
0F80
0780
3780
7B00
7800
7C00
7F80
0000
0000
0000
0000
ENDCHAR
STARTCHAR ac_01
ENCODING 57345
SWIDTH 7200 0
DWIDTH 10 0
BBX 10 16 0 -4
BITMAP
0000
0000
0000
0000
0600
0A00
1380
7200
7200
1380
0A00
0600
0000
0000
0000
0000
ENDCHAR
STARTCHAR arch
ENCODING 57346
SWIDTH 7200 0
DWIDTH 10 0
BBX 10 16 0 -4
BITMAP
0000
0000
0000
0000
0800
0800
1C00
1C00
3600
2200
7700
4100
0000
0000
0000
0000
ENDCHAR
STARTCHAR arch_01
ENCODING 57347
SWIDTH 7200 0
DWIDTH 10 0
BBX 10 16 0 -4
BITMAP
0000
0000
0800
0800
1C00
1C00
3E00
3E00
7700
6300
E380
8080
0000
0000
0000
0000
ENDCHAR
STARTCHAR bat_empty_01
ENCODING 57348
SWIDTH 7200 0
DWIDTH 10 0
BBX 10 16 0 -4
BITMAP
0000
0000
0000
0000
0C00
3F00
2100
2100
2100
2100
2100
3F00
0000
0000
0000
0000
ENDCHAR
STARTCHAR bat_empty_02
ENCODING 57349
SWIDTH 7200 0
DWIDTH 10 0
BBX 10 16 0 -4
BITMAP
0000
0000
0000
0000
0000
0000
7F00
4100
4180
4180
4100
7F00
0000
0000
0000
0000
ENDCHAR
STARTCHAR bat_full_01
ENCODING 57350
SWIDTH 7200 0
DWIDTH 10 0
BBX 10 16 0 -4
BITMAP
0000
0000
0000
0000
0C00
3F00
2100
2D00
2D00
2D00
2100
3F00
0000
0000
0000
0000
ENDCHAR
STARTCHAR bat_full_02
ENCODING 57351
SWIDTH 7200 0
DWIDTH 10 0
BBX 10 16 0 -4
BITMAP
0000
0000
0000
0000
0000
0000
7F00
4100
5D80
5D80
4100
7F00
0000
0000
0000
0000
ENDCHAR
STARTCHAR bat_low_01
ENCODING 57352
SWIDTH 7200 0
DWIDTH 10 0
BBX 10 16 0 -4
BITMAP
0000
0000
0000
0000
0C00
3F00
2100
2100
2100
2D00
2100
3F00
0000
0000
0000
0000
ENDCHAR
STARTCHAR bat_low_02
ENCODING 57353
SWIDTH 7200 0
DWIDTH 10 0
BBX 10 16 0 -4
BITMAP
0000
0000
0000
0000
0000
0000
7F00
4100
5180
5180
4100
7F00
0000
0000
0000
0000
ENDCHAR
STARTCHAR bluetooth
ENCODING 57354
SWIDTH 7200 0
DWIDTH 10 0
BBX 10 16 0 -4
BITMAP
0000
0000
0000
0000
0C00
2A00
1B00
0E00
0E00
1B00
2A00
0C00
0000
0000
0000
0000
ENDCHAR
STARTCHAR bug_01
ENCODING 57355
SWIDTH 7200 0
DWIDTH 10 0
BBX 10 16 0 -4
BITMAP
0000
0000
0000
0000
6180
1200
0C00
6D80
1E00
3F00
5E80
4C80
0000
0000
0000
0000
ENDCHAR
STARTCHAR bug_02
ENCODING 57356
SWIDTH 7200 0
DWIDTH 10 0
BBX 10 16 0 -4
BITMAP
0000
0000
0000
0000
6180
1200
1200
6D80
1E00
3F00
4C80
2100
0000
0000
0000
0000
ENDCHAR
STARTCHAR cat
ENCODING 57357
SWIDTH 7200 0
DWIDTH 10 0
BBX 10 16 0 -4
BITMAP
0000
0000
0000
0000
4080
6180
5E80
7F80
4C80
7F80
3F00
5E80
0000
0000
0000
0000
ENDCHAR
STARTCHAR clock
ENCODING 57358
SWIDTH 7200 0
DWIDTH 10 0
BBX 10 16 0 -4
BITMAP
0000
0000
0000
0000
1E00
3D00
7B80
7780
7080
7F80
3F00
1E00
0000
0000
0000
0000
ENDCHAR
STARTCHAR cpu
ENCODING 57359
SWIDTH 7200 0
DWIDTH 10 0
BBX 10 16 0 -4
BITMAP
0000
0000
0000
0000
6D80
4080
1E00
5E80
5E80
1E00
4080
6D80
0000
0000
0000
0000
ENDCHAR
STARTCHAR dish
ENCODING 57360
SWIDTH 7200 0
DWIDTH 10 0
BBX 10 16 0 -4
BITMAP
0000
0000
0000
0000
4080
6F00
3100
3900
1D00
3E00
7700
6180
0000
0000
0000
0000
ENDCHAR
STARTCHAR diskette
ENCODING 57361
SWIDTH 7200 0
DWIDTH 10 0
BBX 10 16 0 -4
BITMAP
0000
0000
0000
0000
7F80
4080
4080
4080
5E80
5680
5680
3F80
0000
0000
0000
0000
ENDCHAR
STARTCHAR empty
ENCODING 57362
SWIDTH 7200 0
DWIDTH 10 0
BBX 10 16 0 -4
BITMAP
0000
0000
0000
0000
1E00
2100
4080
4080
4080
4080
2100
1E00
0000
0000
0000
0000
ENDCHAR
STARTCHAR eye_l
ENCODING 57363
SWIDTH 7200 0
DWIDTH 10 0
BBX 10 16 0 -4
BITMAP
0000
0000
0000
0000
0000
6C00
2000
2000
1080
4F80
2000
0000
0000
0000
0000
0000
ENDCHAR
STARTCHAR eye_r
ENCODING 57364
SWIDTH 7200 0
DWIDTH 10 0
BBX 10 16 0 -4
BITMAP
0000
0000
0000
0000
0000
0D80
0100
0100
4200
7C80
0100
0000
0000
0000
0000
0000
ENDCHAR
STARTCHAR fox
ENCODING 57365
SWIDTH 7200 0
DWIDTH 10 0
BBX 10 16 0 -4
BITMAP
0000
0000
0000
0000
4080
6180
5E80
7F80
4C80
6D80
3F00
0C00
0000
0000
0000
0000
ENDCHAR
STARTCHAR fs_01
ENCODING 57366
SWIDTH 7200 0
DWIDTH 10 0
BBX 10 16 0 -4
BITMAP
0000
0000
0000
0000
3100
4C80
1E80
3300
3300
5E00
4C80
2300
0000
0000
0000
0000
ENDCHAR
STARTCHAR fs_02
ENCODING 57367
SWIDTH 7200 0
DWIDTH 10 0
BBX 10 16 0 -4
BITMAP
0000
0000
0000
0000
4780
6D00
5E00
7300
3380
1E80
2D80
7880
0000
0000
0000
0000
ENDCHAR
STARTCHAR full
ENCODING 57368
SWIDTH 7200 0
DWIDTH 10 0
BBX 10 16 0 -4
BITMAP
0000
0000
0000
0000
1E00
3F00
7F80
7F80
7F80
7F80
3F00
1E00
0000
0000
0000
0000
ENDCHAR
STARTCHAR fwd
ENCODING 57369
SWIDTH 7200 0
DWIDTH 10 0
BBX 10 16 0 -4
BITMAP
0000
0000
0000
0000
0000
2400
3600
3F00
3F00
3600
2400
0000
0000
0000
0000
0000
ENDCHAR
STARTCHAR half
ENCODING 57370
SWIDTH 7200 0
DWIDTH 10 0
BBX 10 16 0 -4
BITMAP
0000
0000
0000
0000
1E00
3900
7880
7880
7880
7880
3900
1E00
0000
0000
0000
0000
ENDCHAR
STARTCHAR info_01
ENCODING 57371
SWIDTH 7200 0
DWIDTH 10 0
BBX 10 16 0 -4
BITMAP
0000
0000
0000
0000
1E00
3300
7F80
7380
7380
7380
3300
1E00
0000
0000
0000
0000
ENDCHAR
STARTCHAR info_02
ENCODING 57372
SWIDTH 7200 0
DWIDTH 10 0
BBX 10 16 0 -4
BITMAP
0000
0000
0000
0000
7F80
7380
7F80
7380
7380
7380
7380
7F80
0000
0000
0000
0000
ENDCHAR
STARTCHAR info_03
ENCODING 57373
SWIDTH 7200 0
DWIDTH 10 0
BBX 10 16 0 -4
BITMAP
0000
0000
0000
0000
0E00
0E00
0000
1E00
0E00
0E00
0E00
1F00
0000
0000
0000
0000
ENDCHAR
STARTCHAR mail
ENCODING 57374
SWIDTH 7200 0
DWIDTH 10 0
BBX 10 16 0 -4
BITMAP
0000
0000
0000
0000
0000
7F80
3F00
5E80
6D80
7380
7F80
0000
0000
0000
0000
0000
ENDCHAR
STARTCHAR mem
ENCODING 57375
SWIDTH 7200 0
DWIDTH 10 0
BBX 10 16 0 -4
BITMAP
0000
0000
0000
0000
2A80
0000
3F80
3F80
3F80
3F80
0000
2A80
0000
0000
0000
0000
ENDCHAR
STARTCHAR mouse_01
ENCODING 57376
SWIDTH 7200 0
DWIDTH 10 0
BBX 10 16 0 -4
BITMAP
0000
0000
0000
0000
3B80
3B80
3B80
2080
3F80
3F80
3F80
1F00
0000
0000
0000
0000
ENDCHAR
STARTCHAR net_down_01
ENCODING 57377
SWIDTH 7200 0
DWIDTH 10 0
BBX 10 16 0 -4
BITMAP
0000
0000
0000
0000
3C00
1E00
1E00
1E00
7F80
3F00
1E00
0C00
0000
0000
0000
0000
ENDCHAR
STARTCHAR net_down_02
ENCODING 57378
SWIDTH 7200 0
DWIDTH 10 0
BBX 10 16 0 -4
BITMAP
0000
0000
0000
0000
0F00
1E00
1E00
1E00
7F80
3F00
1E00
0C00
0000
0000
0000
0000
ENDCHAR
STARTCHAR net_down_03
ENCODING 57379
SWIDTH 7200 0
DWIDTH 10 0
BBX 10 16 0 -4
BITMAP
0000
0000
0000
0000
0E00
0E00
0E00
0E00
3F80
1F00
0E00
0400
0000
0000
0000
0000
ENDCHAR
STARTCHAR net_up_01
ENCODING 57380
SWIDTH 7200 0
DWIDTH 10 0
BBX 10 16 0 -4
BITMAP
0000
0000
0000
0000
0C00
1E00
3F00
7F80
1E00
1E00
1E00
0F00
0000
0000
0000
0000
ENDCHAR
STARTCHAR net_up_02
ENCODING 57381
SWIDTH 7200 0
DWIDTH 10 0
BBX 10 16 0 -4
BITMAP
0000
0000
0000
0000
0C00
1E00
3F00
7F80
1E00
1E00
1E00
3C00
0000
0000
0000
0000
ENDCHAR
STARTCHAR net_up_03
ENCODING 57382
SWIDTH 7200 0
DWIDTH 10 0
BBX 10 16 0 -4
BITMAP
0000
0000
0000
0000
0400
0E00
1F00
3F80
0E00
0E00
0E00
0E00
0000
0000
0000
0000
ENDCHAR
STARTCHAR net_wired
ENCODING 57383
SWIDTH 7200 0
DWIDTH 10 0
BBX 10 16 0 -4
BITMAP
0000
0000
0000
0000
0E00
0E00
3F80
3F80
3F80
2A80
3F80
0000
0000
0000
0000
0000
ENDCHAR
STARTCHAR next
ENCODING 57384
SWIDTH 7200 0
DWIDTH 10 0
BBX 10 16 0 -4
BITMAP
0000
0000
0000
0000
0000
2100
3900
3F00
3F00
3900
2100
0000
0000
0000
0000
0000
ENDCHAR
STARTCHAR note
ENCODING 57385
SWIDTH 7200 0
DWIDTH 10 0
BBX 10 16 0 -4
BITMAP
0000
0000
0000
0000
1F80
1F80
1080
1080
1080
1080
7380
7380
0000
0000
0000
0000
ENDCHAR
STARTCHAR pacman
ENCODING 57386
SWIDTH 7200 0
DWIDTH 10 0
BBX 10 16 0 -4
BITMAP
0000
0000
0000
0000
1E00
3B00
7380
7F80
7000
7C00
3F00
1E00
0000
0000
0000
0000
ENDCHAR
STARTCHAR pause
ENCODING 57387
SWIDTH 7200 0
DWIDTH 10 0
BBX 10 16 0 -4
BITMAP
0000
0000
0000
0000
0000
3300
3300
3300
3300
3300
3300
0000
0000
0000
0000
0000
ENDCHAR
STARTCHAR phones
ENCODING 57388
SWIDTH 7200 0
DWIDTH 10 0
BBX 10 16 0 -4
BITMAP
0000
0000
0000
0000
1E00
2100
4080
4080
5280
7380
7380
3300
0000
0000
0000
0000
ENDCHAR
STARTCHAR play
ENCODING 57389
SWIDTH 7200 0
DWIDTH 10 0
BBX 10 16 0 -4
BITMAP
0000
0000
0000
0000
0000
3000
3C00
3F00
3F00
3C00
3000
0000
0000
0000
0000
0000
ENDCHAR
STARTCHAR plug
ENCODING 57390
SWIDTH 7200 0
DWIDTH 10 0
BBX 10 16 0 -4
BITMAP
0000
0000
0000
0000
6000
7800
3C00
3E00
1E00
0D00
0280
0180
0000
0000
0000
0000
ENDCHAR
STARTCHAR prev
ENCODING 57391
SWIDTH 7200 0
DWIDTH 10 0
BBX 10 16 0 -4
BITMAP
0000
0000
0000
0000
0000
2100
2700
3F00
3F00
2700
2100
0000
0000
0000
0000
0000
ENDCHAR
STARTCHAR rwd
ENCODING 57392
SWIDTH 7200 0
DWIDTH 10 0
BBX 10 16 0 -4
BITMAP
0000
0000
0000
0000
0000
0900
1B00
3F00
3F00
1B00
0900
0000
0000
0000
0000
0000
ENDCHAR
STARTCHAR scorpio
ENCODING 57393
SWIDTH 7200 0
DWIDTH 10 0
BBX 10 16 0 -4
BITMAP
0000
0000
0000
0000
2100
4080
6D80
1E00
6D80
2D00
4C80
0600
0000
0000
0000
0000
ENDCHAR
STARTCHAR shroom
ENCODING 57394
SWIDTH 7200 0
DWIDTH 10 0
BBX 10 16 0 -4
BITMAP
0000
0000
0000
0000
1E00
2100
4080
4080
7F80
1E00
1E00
1E00
0000
0000
0000
0000
ENDCHAR
STARTCHAR spkr_01
ENCODING 57395
SWIDTH 7200 0
DWIDTH 10 0
BBX 10 16 0 -4
BITMAP
0000
0000
0000
0000
0800
1900
7880
7A80
7A80
7880
1900
0800
0000
0000
0000
0000
ENDCHAR
STARTCHAR spkr_02
ENCODING 57396
SWIDTH 7200 0
DWIDTH 10 0
BBX 10 16 0 -4
BITMAP
0000
0000
0000
0000
0400
0C00
3C00
3E00
3E00
3C00
0C00
0400
0000
0000
0000
0000
ENDCHAR
STARTCHAR spkr_03
ENCODING 57397
SWIDTH 7200 0
DWIDTH 10 0
BBX 10 16 0 -4
BITMAP
0000
0000
0000
0000
1900
6480
6480
7480
7480
6480
6480
1900
0000
0000
0000
0000
ENDCHAR
STARTCHAR stop
ENCODING 57398
SWIDTH 7200 0
DWIDTH 10 0
BBX 10 16 0 -4
BITMAP
0000
0000
0000
0000
0000
3F00
3F00
3F00
3F00
3F00
3F00
0000
0000
0000
0000
0000
ENDCHAR
STARTCHAR temp
ENCODING 57399
SWIDTH 7200 0
DWIDTH 10 0
BBX 10 16 0 -4
BITMAP
0000
0000
0000
0000
0980
0380
2700
0A00
3400
4800
4800
3000
0000
0000
0000
0000
ENDCHAR
STARTCHAR test
ENCODING 57400
SWIDTH 7200 0
DWIDTH 10 0
BBX 10 16 0 -4
BITMAP
0000
0000
0000
0000
3800
6400
4200
4100
2080
1080
0980
0700
0000
0000
0000
0000
ENDCHAR
STARTCHAR usb
ENCODING 57401
SWIDTH 7200 0
DWIDTH 10 0
BBX 10 16 0 -4
BITMAP
0000
0000
0000
0000
0700
0880
1180
2380
3F00
2600
4800
7000
0000
0000
0000
0000
ENDCHAR
STARTCHAR usb_02
ENCODING 57402
SWIDTH 7200 0
DWIDTH 10 0
BBX 10 16 0 -4
BITMAP
0000
0000
0000
0000
0400
0500
1500
1500
1600
0C00
0400
0400
0000
0000
0000
0000
ENDCHAR
STARTCHAR wifi_01
ENCODING 57403
SWIDTH 7200 0
DWIDTH 10 0
BBX 10 16 0 -4
BITMAP
0000
0000
0000
0000
0080
0280
0A80
6A80
6A80
0A80
0280
0080
0000
0000
0000
0000
ENDCHAR
STARTCHAR wifi_02
ENCODING 57404
SWIDTH 7200 0
DWIDTH 10 0
BBX 10 16 0 -4
BITMAP
0000
0000
0000
0000
0100
0480
1280
4A80
4A80
1280
0480
0100
0000
0000
0000
0000
ENDCHAR
ENDFONT
